<?xml version="1.0" encoding="utf-8"?>
<!-- Generator: Adobe Illustrator 22.0.0, SVG Export Plug-In . SVG Version: 6.00 Build 0)  -->
<svg version="1.1" id="图层_1" xmlns="http://www.w3.org/2000/svg" xmlns:xlink="http://www.w3.org/1999/xlink" x="0px" y="0px"
	 viewBox="0 0 1600 800" style="enable-background:new 0 0 1600 800;" xml:space="preserve">
<style type="text/css">
	.st0{fill:#0E2A47;}
	.st1{fill:#B6D2AF;}
	.st2{fill:#747574;}
	.st3{display:none;}
	.st4{display:inline;fill:#FFFFFF;}
	.st5{fill:#1C538E;}
	.st6{fill:#1C538E;stroke:#1C538E;stroke-width:4;stroke-miterlimit:10;}
</style>
<g id="图层_1_2_">
	<g id="图层_1_1_">
		<rect y="0" class="st0" width="1600" height="800"/>
		<path class="st1" d="M1102.5,734.8c2.5-1.2,24.8-8.6,25.6-7.5c0.5,0.7-3.9,23.8-4.6,24.5C1123.3,752.1,1107.5,739.5,1102.5,734.8z
			 M1321.3,302.6c0-0.1-4.9-9.4-7-14.2c-0.1-0.3-0.3-1.1-0.4-1.6c-0.1-0.4-0.3-0.7-0.6-0.9c-0.3-0.2-0.6-0.1-0.8,0.1l-13.1,12.3l0,0
			c-0.2,0.2-0.3,0.5-0.4,0.8c0,0.3,0,0.7,0.2,1c0.1,0.1,1.4,2.5,2.1,3.6c2.4,3.7,6.5,12.1,6.5,12.2c0.2,0.3,0.4,0.5,0.7,0.6
			c0.3,0,0.5-0.1,0.7-0.3c0,0,1.8-2.5,2.7-3.6c1.5-1.6,3-3.2,4.6-4.7c1.2-1.2,1.6-1.4,2.1-1.6c0.5-0.3,1.1-0.5,2.5-1.9
			C1321.5,303.9,1321.6,303.1,1321.3,302.6z M33,770.3L33,770.3c0-0.7-0.5-1.2-1.2-1.2c-0.1,0-0.3,0-0.4,0.1
			c-1.6,0.2-14.3,0.1-22.2,0c-0.3,0-0.6,0.1-0.9,0.4c-0.2,0.2-0.4,0.5-0.4,0.9c0,0.2,0,4.9,0.1,5.9L8.4,790c0,0.3,0.2,0.6,0.4,0.9
			c0.2,0.2,0.5,0.3,0.8,0.3h0.1c7.3-0.7,14.7-0.9,22-0.6c0.3,0,0.7-0.1,0.9-0.3s0.4-0.6,0.4-0.9C32.9,783.3,32.9,776.2,33,770.3z
			 M1507.7,116.1c2.5-1.2,24.8-8.6,25.6-7.5c0.5,0.7-3.9,23.8-4.6,24.5C1528.5,133.4,1512.7,120.8,1507.7,116.1z"/>
		<path class="st1" d="M1453.3,602.2c0-0.1-4.9-9.4-7-14.2c-0.1-0.3-0.3-1.1-0.4-1.6c-0.1-0.4-0.3-0.7-0.6-0.9
			c-0.3-0.2-0.6-0.1-0.8,0.1l-13.1,12.3l0,0c-0.2,0.2-0.3,0.5-0.4,0.8c0,0.3,0,0.7,0.2,1c0.1,0.1,1.4,2.5,2.1,3.6
			c2.4,3.7,6.5,12.1,6.5,12.2c0.2,0.3,0.4,0.5,0.7,0.6c0.3,0,0.5-0.1,0.7-0.3c0,0,1.8-2.5,2.7-3.6c1.5-1.6,3-3.2,4.6-4.7
			c1.2-1.2,1.6-1.4,2.1-1.6c0.5-0.3,1.1-0.5,2.5-1.9C1453.5,603.5,1453.6,602.7,1453.3,602.2z"/>
		<path class="st2" d="M171.1,383.4c1.3-2.5,14.3-22,15.6-21.6c0.8,0.3,11.5,21.2,11.5,22.1C198.1,384.2,177.9,384,171.1,383.4z
			 M596.4,711.8c-0.1-0.1-6.7-8.2-9.7-12.5c-0.2-0.3-0.5-1-0.7-1.5c-0.2-0.4-0.4-0.7-0.7-0.8s-0.6,0-0.8,0.3L574,712l0,0
			c-0.2,0.2-0.2,0.5-0.2,0.9c0,0.3,0.2,0.7,0.4,0.9c0.1,0.1,1.8,2.2,2.8,3.1c3.1,3.1,8.8,10.5,8.9,10.6c0.2,0.3,0.5,0.4,0.8,0.4
			s0.5-0.2,0.6-0.5c0,0,1.2-2.8,2-4.1c1.1-1.9,2.3-3.7,3.5-5.5c0.9-1.4,1.3-1.7,1.7-2c0.5-0.4,1-0.7,2.1-2.4
			C596.9,713.1,596.8,712.3,596.4,711.8z M727.5,179.9L727.5,179.9c0.6,0.2,1.3-0.2,1.4-0.8c0-0.1,0-0.2,0-0.4
			c0.2-1.4,2.8-12.6,4.5-19.5c0.1-0.3,0-0.6-0.2-0.8c-0.2-0.3-0.5-0.4-0.8-0.5c-0.2,0-4.7-1.1-5.7-1.3l-13.4-2.7
			c-0.3-0.1-0.7,0-0.9,0.2s-0.4,0.4-0.5,0.6v0.1c-0.8,6.5-2.2,13.1-3.9,19.4c-0.1,0.3,0,0.6,0.2,0.9c0.2,0.3,0.5,0.4,0.8,0.5
			C714.8,176.9,721.7,178.5,727.5,179.9z M728.5,178.1c-0.1-0.1-0.2-0.2-0.4-0.2C728.3,177.9,728.4,178,728.5,178.1z"/>
		<g class="st3">
			<path class="st4" d="M699.6,472.7c-1.5,0-2.8-0.8-3.5-2.3c-0.8-1.9,0-4.2,1.9-5c3.7-1.6,6.8-4.7,8.4-8.5
				c1.6-3.8,1.7-8.1,0.2-11.9c-0.3-0.9-0.8-1.8-1.2-2.8c-0.8-1.7-1.8-3.7-2.3-5.9c-0.9-4.1-0.2-8.6,2-12.8c1.7-3.1,4.1-6.1,7.6-9.1
				c1.6-1.4,4-1.2,5.3,0.4c1.4,1.6,1.2,4-0.4,5.3c-2.8,2.5-4.7,4.7-5.9,7c-1.4,2.6-1.9,5.3-1.3,7.6c0.3,1.4,1,2.8,1.7,4.3
				c0.5,1.1,1,2.2,1.5,3.3c2.1,5.6,2,12-0.3,17.6c-2.3,5.5-6.8,10.1-12.3,12.5C700.6,472.6,700.1,472.7,699.6,472.7z M740.4,421.4
				c1.5-0.2,3,0.5,3.8,1.9c1.1,1.8,0.4,4.2-1.4,5.3c-3.7,2.1-6.4,5.6-7.6,9.5c-1.2,4-0.8,8.4,1.1,12.1c0.4,0.9,1,1.7,1.6,2.7
				c1,1.7,2.2,3.5,3,5.7c1.4,4,1.2,8.7-0.6,13.2c-1.4,3.4-3.5,6.6-6.8,10.1c-1.5,1.6-3.9,1.7-5.5,0.2c-1.6-1.4-1.7-3.9-0.2-5.4
				c2.6-2.8,4.3-5.3,5.3-7.7c1.1-2.8,1.3-5.6,0.5-7.9c-0.5-1.3-1.3-2.7-2.2-4.1c-0.6-1-1.3-2.1-1.9-3.2c-2.8-5.4-3.4-11.9-1.7-17.8
				c1.8-5.9,5.8-11,11.2-14C739.4,421.6,739.9,421.4,740.4,421.4z M261.3,590.9c5.7,6.8,9,15.7,9.4,22.4c0.5,7.3-2.4,16.4-10.2,20.4
				c-3,1.5-6.7,2.2-11.2,2.2c-7.9-0.1-12.9-2.9-15.4-8.4c-2.1-4.7-2.3-11.4,1.8-15.9c3.2-3.5,7.8-4.1,11.2-1.6
				c1.2,0.9,1.5,2.7,0.6,3.9s-2.7,1.5-3.9,0.6c-1.8-1.3-3.6,0.6-3.8,0.8c-2.4,2.6-2.1,7-0.8,9.9c1.5,3.4,4.7,5,10.4,5.1
				c3.6,0,6.4-0.5,8.6-1.6c4.7-2.4,7.7-8.6,7.2-15c-0.5-7.3-5.3-18.2-13-23.9c-4.2-3.1-8.5-4.1-12.9-3.1c-3.1,0.7-6.2,2.4-9.7,5
				c-6.6,5.1-11.7,11.8-14.2,19c-2.7,7.7-2.1,15.8,1.9,23.9c0.7,1.4,0.1,3.1-1.3,3.7c-1.4,0.7-3.1,0.1-3.7-1.3
				c-4.6-9.4-5.4-19.2-2.2-28.2c2.9-8.2,8.6-15.9,16.1-21.6c4.1-3.1,8-5.1,11.8-6c6-1.4,12,0,17.5,4
				C257.6,586.9,259.6,588.8,261.3,590.9z"/>
			<circle class="st4" cx="1013.7" cy="153.9" r="7.1"/>
			<circle class="st4" cx="1024.3" cy="132.1" r="7.1"/>
			<circle class="st4" cx="1037.3" cy="148.9" r="7.1"/>
			<path class="st4" d="M1508.7,297.2c-4.8-5.4-9.7-10.8-14.8-16.2c5.6-5.6,11.1-11.5,15.6-18.2c1.2-1.7,0.7-4.1-1-5.2
				c-1.7-1.2-4.1-0.7-5.2,1c-4.2,6.2-9.1,11.6-14.5,16.9c-4.8-5-9.7-10-14.7-14.9c-1.5-1.5-3.9-1.5-5.3,0c-1.5,1.5-1.5,3.9,0,5.3
				c4.9,4.8,9.7,9.8,14.5,14.8c-1.1,1.1-2.3,2.2-3.5,3.2c-4.1,3.8-8.4,7.8-12.4,12c-1.4,1.5-1.4,3.8,0,5.3l0,0
				c1.5,1.4,3.9,1.4,5.3-0.1c3.9-4,8.1-7.9,12.1-11.7c1.2-1.1,2.3-2.2,3.5-3.3c4.9,5.3,9.8,10.6,14.6,15.9c0.1,0.1,0.1,0.1,0.2,0.2
				c1.4,1.4,3.7,1.5,5.2,0.2C1510,301.2,1510.1,298.8,1508.7,297.2z M327.6,248.6l-0.4-2.6c-1.5-11.1-2.2-23.2-2.3-37
				c0-5.5,0-11.5,0.2-18.5c0-0.7,0-1.5,0-2.3c0-5,0-11.2,3.9-13.5c2.2-1.3,5.1-1,8.5,0.9c5.7,3.1,13.2,8.7,17.5,14.9
				c5.5,7.8,7.3,16.9,5,25.7c-3.2,12.3-15,31-30,32.1L327.6,248.6z M332.1,179.2c-0.2,0-0.3,0-0.4,0.1s-0.7,0.5-1.1,2.7
				c-0.3,1.9-0.3,4.2-0.3,6.3c0,0.8,0,1.7,0,2.4c-0.2,6.9-0.2,12.8-0.2,18.3c0.1,12.5,0.7,23.5,2,33.7c11-2.7,20.4-18.1,23-27.8
				c1.9-7.2,0.4-14.8-4.2-21.3l0,0C347,188.1,340,183,335,180.3C333.6,179.5,332.6,179.2,332.1,179.2z M516.3,60.8
				c-0.1,0-0.2,0-0.4-0.1c-2.4-0.7-4-0.9-6.7-0.7c-0.7,0-1.3-0.5-1.4-1.2c0-0.7,0.5-1.3,1.2-1.4c3.1-0.2,4.9,0,7.6,0.8
				c0.7,0.2,1.1,0.9,0.9,1.6C517.3,60.4,516.8,60.8,516.3,60.8z M506.1,70.5c-0.5,0-1-0.3-1.2-0.8c-0.8-2.1-1.2-4.3-1.3-6.6
				c0-0.7,0.5-1.3,1.2-1.3s1.3,0.5,1.3,1.2c0.1,2,0.5,3.9,1.1,5.8c0.2,0.7-0.1,1.4-0.8,1.6C506.4,70.5,506.2,70.5,506.1,70.5z
				 M494.1,64.4c-0.4,0-0.8-0.2-1-0.5c-0.4-0.6-0.3-1.4,0.2-1.8c1.8-1.4,3.7-2.6,5.8-3.6c0.6-0.3,1.4,0,1.7,0.6
				c0.3,0.6,0,1.4-0.6,1.7c-1.9,0.9-3.7,2-5.3,3.3C494.7,64.3,494.4,64.4,494.1,64.4z M500.5,55.3c-0.5,0-0.9-0.3-1.2-0.7
				c-0.5-1-1.2-1.9-2.4-3.4c-0.3-0.4-0.7-0.9-1.1-1.4c-0.4-0.6-0.3-1.4,0.2-1.8c0.6-0.4,1.4-0.3,1.8,0.2s0.8,1,1.1,1.4
				c1.3,1.6,2.1,2.6,2.7,3.9c0.3,0.6,0,1.4-0.6,1.7C500.9,55.3,500.7,55.3,500.5,55.3z M506.7,55c-0.3,0-0.5-0.1-0.8-0.2
				c-0.6-0.4-0.7-1.2-0.3-1.8c1.2-1.7,2.3-3.4,3.3-5.2c0.3-0.6,1.1-0.9,1.7-0.5c0.6,0.3,0.9,1.1,0.5,1.7c-1,1.9-2.2,3.8-3.5,5.6
				C507.4,54.8,507.1,55,506.7,55z M1029.3,382.8c-0.1,0-0.2,0-0.4-0.1c-2.4-0.7-4-0.9-6.7-0.7c-0.7,0-1.3-0.5-1.4-1.2
				c0-0.7,0.5-1.3,1.2-1.4c3.1-0.2,4.9,0,7.6,0.8c0.7,0.2,1.1,0.9,0.9,1.6C1030.3,382.4,1029.8,382.8,1029.3,382.8z M1019.1,392.5
				c-0.5,0-1-0.3-1.2-0.8c-0.8-2.1-1.2-4.3-1.3-6.6c0-0.7,0.5-1.3,1.2-1.3s1.3,0.5,1.3,1.2c0.1,2,0.5,3.9,1.1,5.8
				c0.2,0.7-0.1,1.4-0.8,1.6C1019.4,392.5,1019.2,392.5,1019.1,392.5z M1007.1,386.4c-0.4,0-0.8-0.2-1-0.5c-0.4-0.6-0.3-1.4,0.2-1.8
				c1.8-1.4,3.7-2.6,5.8-3.6c0.6-0.3,1.4,0,1.7,0.6s0,1.4-0.6,1.7c-1.9,0.9-3.7,2-5.3,3.3C1007.7,386.3,1007.4,386.4,1007.1,386.4z
				 M1013.5,377.3c-0.5,0-0.9-0.3-1.2-0.7c-0.5-1-1.2-1.9-2.4-3.4c-0.3-0.4-0.7-0.9-1.1-1.4c-0.4-0.6-0.3-1.4,0.2-1.8
				c0.6-0.4,1.4-0.3,1.8,0.2c0.4,0.5,0.8,1,1.1,1.4c1.3,1.6,2.1,2.6,2.7,3.9c0.3,0.6,0,1.4-0.6,1.7
				C1013.9,377.3,1013.7,377.3,1013.5,377.3z M1019.7,377c-0.3,0-0.5-0.1-0.8-0.2c-0.6-0.4-0.7-1.2-0.3-1.8c1.2-1.7,2.3-3.4,3.3-5.2
				c0.3-0.6,1.1-0.9,1.7-0.5c0.6,0.3,0.9,1.1,0.5,1.7c-1,1.9-2.2,3.8-3.5,5.6C1020.4,376.8,1020.1,377,1019.7,377z M1329.7,573.4
				c-1.4,0-2.9-0.2-4.5-0.7c-8.4-2.7-16.6-12.7-18.7-20c-0.4-1.4-0.7-2.9-0.9-4.4c-8.1,3.3-15.5,10.6-15.4,21c0,1.5-1.2,2.7-2.7,2.8
				l0,0c-1.5,0-2.7-1.2-2.7-2.7c-0.1-6.7,2.4-12.9,7-18c3.6-4,8.4-7.1,13.7-8.8c0.5-6.5,3.1-12.9,7.4-17.4c7-7.4,18.2-8.9,27.3-10.1
				l0.7-0.1c1.5-0.2,2.9,0.9,3.1,2.3c0.2,1.5-0.9,2.9-2.3,3.1l-0.7,0.1c-8.6,1.2-18.4,2.5-24,8.4c-3,3.2-5,7.7-5.7,12.4
				c7.9-1,17.7,1.3,24.3,5.7c4.3,2.9,7.1,7.8,7.2,12.7c0.2,4.3-1.7,8.3-5.2,11.1C1335.2,572.4,1332.6,573.4,1329.7,573.4z
				 M1311,546.7c0.1,1.5,0.4,3,0.8,4.4c1.7,5.8,8.7,14.2,15.1,16.3c2.8,0.9,5.1,0.5,7.2-1.1c2.7-2.1,3.2-4.8,3.1-6.6
				c-0.1-3.2-2-6.4-4.8-8.3C1326.7,547.5,1317.7,545.6,1311,546.7z"/>
		</g>
	</g>
	<g id="图层_2_1_">
	</g>
</g>
<g id="图层_2_2_">
	<g>
		<path class="st5" d="M760.9,442.4c-0.1-2.2-0.3-4.4-0.8-6.6c-0.9-4-2.6-7.8-5.1-11.1c-4-5.3-9.6-8.3-15.9-9.9
			c-1.8-0.4-3.6-0.8-5.4-0.8c-1.2,0-2.2-0.1-3.4,0c-3.9,0.3-7.6,1.4-11,3.3c-3.2,1.8-6.1,4-8.5,6.9c-1.3,1.6-2.1,3.4-2.3,5.4
			c-0.1,0.9,0.1,1.7,0.1,2.6c0.1,0.7,0.1,1.3-0.2,2c-0.9,1.9-1.1,3.8-0.5,5.8c0.2,0.7,0.2,0.7-0.4,0.9c-3.3,1.2-5.6,3.4-7.2,6.5
			c-1.2,2.2-2.4,4.4-3.7,6.6c-0.4,0.7-1.1,1.4-1.8,1.9c-1.1,0.9-2.5,1.1-3.8,1.3c-3.9,0.6-7.1,2.4-9.7,5.3c-1,1.2-1.1,2.7-0.2,4
			c0.6,0.9,1.4,1.4,2.5,1.5s2.1-0.4,2.8-1.2c2-2.2,4.4-3.1,7.2-3.3c0.1,0,0.2,0,0.4,0.1c-0.1,0.1-0.2,0.2-0.3,0.3
			c-1.1,0.9-2.1,2-2.7,3.3c-0.6,1.1-1,2.2-1.4,3.3c-0.9,2.4,0.9,4.4,3.2,4.4c1.7-0.1,2.6-1.1,3.3-2.5c0.3-0.6,0.4-1.2,0.7-1.7
			c0.5-1.2,1.4-1.9,2.7-2.2c0.9-0.2,1.8-0.6,2.7-1c0.3-0.1,0.6-0.3,1-0.6c-0.1,0.3-0.1,0.4-0.2,0.6c-0.4,1-0.8,2-1.1,3
			c-0.4,1-0.4,2.1-0.9,3c-0.6,1.2-1.4,2.3-2,3.5c-0.4,0.7-0.8,1.3-0.8,2c-0.1,2,1.5,3.4,3.5,3.5c-0.1,0.1-0.1,0.1-0.1,0.1
			c-1,0.4-1.7,1-2,2c-0.7,1.8,0.3,4,2.5,4.3c1.5,0.3,3.1,0.1,4.6,0c4.6-0.5,7.9-2.9,10.1-7.1c1.2-2.5,2-5.1,2.5-7.8
			c0.4-1.9,1.2-3.4,2.5-4.7c1.5-1.5,3.4-2.5,5.4-3.3c0.4-0.2,0.7-0.1,1.1,0.2c1,1.2,2.4,1.7,3.8,2.2c1.4,0.4,2.7,0.1,4.1-0.1
			c0.4-0.1,0.7-0.1,1.1,0.1c0.8,0.3,1.6,0.6,2.4,0.8c2.1,0.4,4.1,0,6.1-0.9c3.5-1.8,6.5-4.3,9-7.3c2.9-3.6,4.8-7.7,5.8-12.2
			C760.7,446.4,760.9,444.4,760.9,442.4z M701.2,459.4c-0.6,0.6-1.2,1.1-1.8,1.7c-0.1,0.1-0.4,0.2-0.6,0.3c3.4-2.9,5.3-6.7,7.2-10.5
			c0.7-1.4,1.4-2.7,2.9-3.3c0.9-0.4,2-0.7,3-1.1c0.4-0.1,0.6,0.1,0.8,0.4c-0.6,0.3-1,0.6-1.5,0.9c-1.7,1-3.1,2.3-4.2,4
			C705.1,454.4,703.4,457,701.2,459.4z M715.2,466.2c-1.4,1.7-2.1,3.8-2.7,5.8c-0.5,1.7-0.8,3.4-1.3,5.1c-0.4,1.4-1.2,2.8-2.5,3.8
			c-1.2,0.9-2.5,1.2-3.9,1.4c-0.9,0.1-1.7,0-2.6,0c0-0.1,0-0.1,0-0.1c2.3-1.2,3.2-3.5,4.1-5.6c0.7-1.6,1.2-3.3,1.7-4.9
			c0.4-1.1,0.9-2,1.7-2.7c1.6-1.4,3.6-2.2,5.6-3.1l0.1,0.1C715.4,465.9,715.4,466,715.2,466.2z M718.4,455.7
			c-0.7,1.3-1.8,2.2-3.1,2.7c-2.3,1-4.6,2.1-6.9,3.1c-0.1,0-0.1,0.1-0.3,0.1c0.7-0.9,1.3-1.8,1.9-2.6c0.9-1.3,1.8-2.7,2.7-4
			c1-1.5,2.5-2.3,4.1-2.7c0.1,0,0.3-0.1,0.4,0C718.3,453.1,719.1,454.2,718.4,455.7z M752.7,451c-2,4.7-5.2,8.2-9.6,10.6
			c-2.2,1.2-3.2,1.1-4.8-1c-5.2-6.4-10.3-12.9-15.5-19.3c-2.3-2.9-4.5-5.7-6.9-8.6c-0.6-0.8-1-1.7-0.8-2.7c0.1-0.6,0.5-1.3,0.9-1.8
			c1.6-2,3.5-3.5,5.6-4.7c2.7-1.7,5.8-2.6,9-2.9c1.4-0.1,2.8,0,3.8,0c7.5,0.9,12.9,4.3,16.6,10.5c1.6,2.7,2.5,5.6,2.9,8.7
			c0.1,1.6,0.1,3.2,0.1,4.8C754,446.9,753.5,449,752.7,451z"/>
	</g>
	<g>
		<g>
			<path class="st5" d="M988.9,190.3c-1.8-6.8-8.1-11.2-15.2-10.9c-2,0.1-4,0.4-5.9,1c-12.2,3.8-21.7,11.4-28.6,18.9
				c-8.1,9.5-12.1,17.6-13.3,25.2c-0.7,4.9-0.7,9.9,2.3,14.1c5.5,7.9,11.1,8.7,18,3.9c2.6-1.8,4.7-3.9,6.8-6.2
				c4.5-4.7,7.3-10.5,10.3-16.2c3.1-6,7.3-10.4,14.2-12.1c1.2-0.3,2.5-1,3.7-1.5C987.4,203.3,990.6,196.4,988.9,190.3z M942.4,201.7
				c-0.4-1.1,1.2-2.1,2.1-2.9c1-0.9,1.8-2.1,3.2-2.7c-0.2,2.1-0.4,4-0.7,6c-0.1,0.6-0.2,0.9-0.9,0.7c-0.1,0-0.3,0-0.4-0.1
				C944.6,202.5,942.8,202.8,942.4,201.7z M951,219.4c-3.4,1.3-6.2,0.1-7.9-1.2c-4.6-3.7-4.6-8.9-3.2-12.6c0.2-0.7,0.7-0.5,1.1-0.4
				c1.7,0.6,3.4,1,5.3,1.2c0.9,0.1,1,0.6,1.2,1.3c0.7,3.5,2,6.8,4,9.7C952.3,218.6,951.9,219.1,951,219.4z M951,207.8
				c-0.1-0.7-0.1-1,0.7-1c2.5-0.1,4.9-0.5,7.9-1c-2.4,3.2-3.3,6.7-5,10.1C952.7,213.2,951.6,210.6,951,207.8z M966,198.9
				c-4.2,3.7-9.5,3.9-14.7,4.4c-1,0.1-0.9-0.5-0.9-1.2c0.1-3.5,1-6.8,2.6-10c0.2-0.4,0.5-0.8,0.9-1.1c5.4-3.7,10.9-7,17.5-8.1
				c3-0.5,3.5-0.2,5,2.3c1.1,2,0.9,3.5-1.2,5.9C972.7,193.9,969.1,196.2,966,198.9z"/>
			<path class="st5" d="M1020.9,229.1c2.1-5.9,3.5-12.1,2.3-18.5c-1.1-5.7-4.8-9.2-10.3-11c-5.2-1.7-9.8-0.3-13.7,3.4
				c-3,2.9-4.5,6.7-4.8,10.7c-0.6,5.9-3.2,10.4-7.8,14.2c-4,3.2-8.1,6.1-11.7,9.7c-4.4,4.5-8.2,9.4-10.1,15.5
				c-0.9,2.9-1,5.7,0.8,8.2c1.7,2.3,3.8,4.2,6.4,5.4c5.7,2.6,11.4,1.8,17-0.5c7.7-3.2,13.9-8.4,19.6-15.3
				C1013.7,244.7,1017.9,237.3,1020.9,229.1z M1019.7,211.9c0.5,0.6,0.4,1.2,0.4,1.9c0.4,5.4-1.4,10.5-2.9,15.6
				c-1.9,6.2-6.8,8.1-12.3,9.5c-0.8,0.2-1.2,0-1.3-0.9c-0.6-4.3-0.4-8.6,0.7-12.7c0.4-1.7,1.8-3.2,2.6-4.7c1.6-2.9,2.9-5.9,4.6-8
				C1013.9,209.7,1017.6,209.5,1019.7,211.9z M999.7,230.9c0.1,2.6,0.2,5.1,0.5,7.6c0.1,0.6-0.1,0.9-0.8,0.8
				c-2.9-0.1-5.7-0.8-8.7-2.2C993.8,234.8,997.2,233.5,999.7,230.9z M1002.1,250.6c-3.8,1.6-7.5,1.9-10.9-0.9
				c-2.4-2.3-4-4.9-3.3-8.4c0.2-1,0.6-1.3,1.7-0.8c3.3,1.5,6.8,2.3,10.5,2.3c0.8,0,1.2,0.3,1.5,1c0.4,1.3,0.9,2.7,1.6,3.9
				C1004.3,249.4,1003.5,250,1002.1,250.6z M1007.1,246.9c-1.5-0.4-1.3-1.8-1.8-2.8c-0.2-0.5-1.1-1.4,0.1-1.8
				c1.9-0.7,3.9-1.2,6.2-1.8c-1.3,2.3-2.4,4.3-4,5.9C1007.4,246.7,1007.2,246.9,1007.1,246.9z"/>
		</g>
	</g>
	<g>
		<path class="st5" d="M316.9,563.7c-0.1-0.7-1.1-0.7-1.6-0.9c-2.5-0.9-4.7-2.2-6.6-4c-3-2.7-5-6.1-6.2-10.1
			c-0.3,0.2-0.5,0.2-0.5,0.3c-5.7,8.4-11.6,16.6-18.6,24c-1.1,1.2-1,2.6,0.1,3.7c1.9,2,3.8,3.9,5.8,5.8c1.4,1.3,2.7,1.1,4.1-0.1
			c1.1-1,2.1-2,3.2-2.9c6.1-5.3,12.6-9.9,19.1-14.5C316.1,564.6,317,564.4,316.9,563.7z M305.9,562.6c-1.4,2-3.2,3.7-5.1,5.1
			c-0.2,0.1-0.6,0.1-0.7,0.2c-0.9,0-1.6-0.4-1.9-1.1c-0.4-0.7-0.5-1.6,0.1-2.2c1.4-1.6,2.9-3.1,4.5-4.5c0.7-0.7,1.7-0.5,2.4,0.1
			S306.5,561.8,305.9,562.6z"/>
		<path class="st5" d="M331.6,555.2c-7-7-14-14-21-21c-1.1-1.1-1.6-0.9-2.4,0.3c-3.5,5.5-3.9,11.3-0.9,17c3.1,5.9,8.2,8.7,14.4,9
			c3.7-0.1,6.8-1,9.7-2.9C332.6,556.8,332.7,556.2,331.6,555.2z"/>
		<path class="st5" d="M338.8,543.3c-0.1,3.5-0.9,6.3-2.3,8.9c-0.8,1.4-1.4,1.4-2.4,0.3c-6.1-6.2-12.2-12.2-18.4-18.4
			c-0.8-0.8-1.5-1.6-2.4-2.4c-1.3-1-0.9-1.6,0.3-2.4c9.3-5.8,22.4-0.3,24.7,10.4C338.6,541.2,338.7,542.5,338.8,543.3z"/>
		<path class="st6" d="M279.4,589.1c0-2,1.1-4.3,2.8-6.4c0.5-0.6,1-1.1,1.8-0.3c0.7,0.6,1.2,1.2,0.4,2.1c-1.5,1.7-2.4,3.7-2.2,6
			c0.6,5.8,7.1,8.9,12.1,5.7c1-0.7,1.8-1.5,2.7-2.3c6.6-6.6,13.3-13.2,19.9-19.9c2.6-2.6,5.8-4.1,9.6-3.6c8,1.1,11.8,9.9,7.1,16.5
			c-2.1,2.9-4.9,5.1-7.4,7.8c-1.1,1.1-2.1,2.1-3.2,3.2c-0.8,0.8-1.6,1.7-2.7,0.7c-1.1-1.1,0-1.8,0.7-2.5c2.8-2.8,5.5-5.5,8.3-8.3
			c0.5-0.5,1.1-1.1,1.6-1.7c2.7-3.4,2.6-7.4-0.2-10.3c-3-3-7.3-3.4-10.6-0.5c-3.2,2.7-6,5.8-8.9,8.7c-4.6,4.6-9.1,9.3-13.9,13.8
			c-4.9,4.6-12.4,3.6-16.2-1.8C280,593.8,279.4,591.9,279.4,589.1z"/>
	</g>
	<g>
		<g>
			<path class="st5" d="M306.9,262.6c0.7,0.2,1-0.3,1.4-0.6c1.9-1.4,3.7-2.8,5.6-4.2c0.6-0.4,1.2-1.2,2.1-0.4
				c0.8,0.7,1.4,1.5,0.9,2.7c-1,2.2-1.9,4.5-3.1,6.5c-0.8,1.3-1.5,2.6-2.2,3.8c-0.2,0.3-0.6,0.8-0.2,1.1c0.4,0.3,0.8-0.2,1-0.5
				c2.2-2.6,4.2-5.5,5.6-8.7c0.2-0.5,0.3-1.4,1.1-1.2c0.7,0.2,0.9,0.9,0.8,1.6c-0.9,6.1-2.3,11.9-5.4,17.3c-1,1.7-2.2,3.2-3.4,4.7
				c-0.6,0.8-1.5,1.2-2.6,1c-4.9-1-9.5-2.7-13.5-5.8c-3.8-3.1-6.5-6.9-8.3-11.5c-1-2.5-1.6-5.1-2.1-7.8c-0.2-1,0-1.8,0.8-2.5
				c3.8-3.7,8.5-5.6,13.6-6.7c3.1-0.6,6.3-0.8,9.5-1c0.6,0,1.1,0,1.7,0.1c0.3,0.1,0.6,0.2,0.6,0.6c0,0.3-0.3,0.4-0.6,0.4
				c-0.8,0.2-1.5,0.4-2.3,0.6c-2.9,0.6-5.5,2.1-8.1,3.3c-0.4,0.2-1,0.4-0.8,0.8c0.3,0.6,0.8,0.2,1.2,0.1c3.6-1.3,7.2-2.5,11-3.1
				c1-0.2,1.7,0,2.3,0.8c0.6,0.8,0.6,1.5-0.2,2.1c-1.7,1.5-3.4,3-5.1,4.5C307.7,261.5,307.1,261.9,306.9,262.6z"/>
			<path class="st5" d="M334.9,239.7c-0.9,0.1-1.3,0.6-1.9,1c-1.7,1.3-3.5,2.6-5.2,4c-0.6,0.4-1.2,1-1.9,0.3c-0.6-0.6-1.4-1.2-1-2.4
				c1.2-3.4,2.9-6.5,4.7-9.6c0.4-0.7,1.5-1.9,1-2.2c-0.9-0.5-1.4,0.9-1.9,1.5c-2,2.5-3.8,5.2-4.9,8.2c-0.1,0.3-0.2,1-0.8,0.8
				c-0.5-0.1-0.4-0.6-0.4-1.1c1.7-7.8,4-15.3,10.1-21c0.1-0.1,0.1-0.1,0.2-0.2c1.7-1.7,3.3-2.3,5.8-1.2c6.3,2.9,11.8,6.7,15.3,12.9
				c2.6,4.6,3.4,9.7,3.4,14.9c0,1.2-0.6,1.8-1.5,2.2c-3.6,2-7.4,3.3-11.4,3.9c-3.7,0.6-7.3,0.6-11,0.5c-0.4,0-1-0.1-1.3-0.2
				c-0.5-0.1-1-0.5-1-1.1s0.6-0.6,1-0.7c3.3-0.6,6.4-2,9.4-3.5c0.4-0.2,0.7-0.4,1.1-0.6c0.3-0.2,0.6-0.4,0.4-0.8
				c-0.2-0.3-0.5-0.1-0.8,0c-2.2,0.9-4.5,1.7-6.9,2.3c-1.7,0.5-3.3,0.8-5.1,1.1c-0.8,0.1-1.3-0.1-1.9-0.7c-1-1.2-1-1.5,0.2-2.5
				c1.7-1.5,3.5-3.1,5.2-4.6C334.3,240.7,334.8,240.5,334.9,239.7z"/>
			<path class="st5" d="M317,254.5c-1.1-1.3-2.2-2.8-3.4-4.1c-0.7-0.8-0.8-1.6,0.1-2.2c1.9-1.4,3.8-2.9,5.6-4.6
				c0.8-0.7,1.5-0.6,2.1,0.2c2.3,2.8,4.6,5.7,7,8.5c0.8,1,0.6,1.9-0.4,2.4c-2.1,1-3.7,2.4-5.1,4.2c-0.8,1.1-1.6,0.9-2.5-0.2
				C319.3,257.3,318.1,255.9,317,254.5L317,254.5z"/>
		</g>
	</g>
	<g>
		<g>
			<path class="st5" d="M1159.2,496.4c2.1-1.8,4.1-3.6,6.1-5.3c1.6-1.3,3.3-2.4,5-3.7c0.9-0.7,1.7-1.7,2.6-2.5
				c2.4-2.1,4.8-4.2,7.3-6.2c2.4-2,5.1-3.6,8-4.8c2.2-1,4.7-1.7,7.1-1.4c2,0.2,4,0.8,5.9,1.4c3.3,1.1,6.4,2.8,9,5.4
				c3.3,3.2,4.9,7.2,5.1,11.8c0.1,1.4-0.1,2.9-0.1,4.3c-0.1,0-0.2,0-0.2,0.1c-0.1-0.3-0.2-0.6-0.3-0.9c-0.9-2.5-2-4.8-4-6.6
				c-2.2-2-4.9-2.8-7.8-2.2c-1.3,0.3-2.5,0.7-3.7,1.2c-0.3,0.1-0.6,0.3-0.7,0.6c-2.8,3.3-5.2,6.9-7,10.8c-1.4,3.2-2.1,6.5-2.5,9.9
				c-0.2,2-0.6,3.9-1,5.8c-0.1,0.5-0.3,0.6-0.7,0.4c-2.5-1.3-5.1-2.5-7.6-3.7c-0.6-0.3-0.6-0.6-0.3-1.2c0.2-0.2,0.2-0.5,0.3-0.6
				c0.9-1.5,0.6-3.1-0.9-4c-2.1-1.4-4.3-2.7-6.5-4.1c-1.2-0.7-3-0.7-3.9,0.8c-0.2,0.3-0.5,0.7-0.9,1.2
				C1164.6,500.8,1162,498.6,1159.2,496.4z"/>
			<path class="st5" d="M1186.4,519.6c0.7,0.7,1.3,1.3,1.9,1.9c2.8,2.9,5.5,6,7.6,9.5c0.9,1.6,1.8,3.2,1.8,5.2
				c0,1.8-0.9,2.8-2.7,3.1c-2.1,0.3-4.2,0-6.2-0.6c-4-1-7.7-2.7-11.3-4.6c-7.4-3.8-14.4-8.4-21-13.6c-5.2-4-10-8.4-14.4-13.3
				c-2.2-2.4-4.2-5.1-5.7-8c-0.6-1.2-0.9-2.5-1.2-3.8c-0.2-1.7,0.8-3,2.5-3.3c2.1-0.3,4.2-0.1,6.2,0.5c4,1.1,7.9,2.7,11.6,4.7
				c1.2,0.6,1.2,0.6,0.3,1.8c-1,1.4-1,1,0,2.4c1.9,2.7,4.2,5,6.6,7.2c0.4,0.3,0.5,0.6,0.2,1.2c-0.9,1.7-0.5,3.1,1,4.1
				c2.1,1.4,4.3,2.8,6.4,4.1c1.2,0.8,2.8,0.6,3.7-0.5c0.5-0.5,0.8-0.6,1.4-0.3c3.1,1.4,6.3,2.5,9.6,3.3
				C1185.7,520.6,1186.2,520.4,1186.4,519.6z"/>
			<path class="st5" d="M1174.3,505c0.7,0.4,1.3,0.9,2,1.3c1.1,0.7,1.3,1.8,0.6,2.9c-1.2,1.8-2.4,3.7-3.6,5.5
				c-0.7,1.2-1.6,1.3-2.8,0.6c-1.5-0.9-3-1.8-4.5-2.8c-1.2-0.8-1.4-1.8-0.6-3c1.2-1.8,2.4-3.7,3.6-5.5c0.7-1.2,1.7-1.3,2.9-0.6
				c0.4,0.2,0.8,0.5,1.2,0.7C1173.5,504.4,1173.9,504.7,1174.3,505L1174.3,505z"/>
		</g>
	</g>
</g>
</svg>
