<svg id="图层_1" data-name="图层 1" xmlns="http://www.w3.org/2000/svg" xmlns:xlink="http://www.w3.org/1999/xlink" viewBox="0 0 787.16 629.61"><defs><style>.cls-1{fill:none;}.cls-2{clip-path:url(#clip-path);}.cls-3{fill:#64748b;}.cls-4{clip-path:url(#clip-path-2);}</style><clipPath id="clip-path" transform="translate(-565.88 -258.6)"><rect class="cls-1" x="566" y="257.64" width="787.88" height="420.72"/></clipPath><clipPath id="clip-path-2" transform="translate(-565.88 -258.6)"><rect id="SVGID" class="cls-1" x="566" y="468" width="787.88" height="420.72"/></clipPath></defs><g class="cls-2"><path class="cls-3" d="M1304.56,669.29c11.41,11.41,28.52,11.41,39.92,0s11.41-28.52,0-39.93L979.42,264.3c-5.7-5.7-17.11-5.7-22.81-5.7S939.5,264.3,933.79,270L574.44,629.36c-11.41,11.41-11.41,28.52,0,39.93s28.51,11.41,39.92,0L956.61,327.05ZM956.61,327.05" transform="translate(-565.88 -258.6)"/></g><g class="cls-4"><path class="cls-3" d="M1304.56,879.65c11.41,11.41,28.52,11.41,39.92,0s11.41-28.52,0-39.93l-365.06-365c-5.7-5.71-17.11-5.71-22.81-5.71s-17.11,5.71-22.82,11.41L574.44,839.72c-11.41,11.41-11.41,28.52,0,39.93s28.51,11.41,39.92,0L956.61,537.41ZM956.61,537.41" transform="translate(-565.88 -258.6)"/></g></svg>