<?xml version="1.0" encoding="utf-8"?>
<!-- Generator: Adobe Illustrator 22.0.0, SVG Export Plug-In . SVG Version: 6.00 Build 0)  -->
<svg version="1.1" id="图层_1" xmlns="http://www.w3.org/2000/svg" xmlns:xlink="http://www.w3.org/1999/xlink" x="0px" y="0px"
	 viewBox="0 0 612 792" style="enable-background:new 0 0 612 792;" xml:space="preserve">
<style type="text/css">
	.st0{fill:#FE5303;}
	.st1{fill:#E4E3D9;}
	.st2{fill:#51050F;}
	.st3{fill:#52060F;}
</style>
<g>
	<path class="st0" d="M441.4,287.1c0,0-21.5,17.4-32.5,26.5v-143H212.2v342.5h240.1c0-1.6,0-3,0-4.4c0-67.1-0.9-213.7-0.9-213.7
		L441.4,287.1z"/>
	<path class="st0" d="M511.6,109.5c0-0.9-0.1-1.9-0.2-3.1c-1.5,0-2.8,0-4.1,0c-112.5,0-225.1,0-337.6,0c-31.8,0-59.1,19.9-61.2,51.5
		c-3.1,46.2-1.7,92.7-1.6,139.1c0.1,103,0.7,205.9,1,308.9c2.6-1,1.5-3.5,1.9-5.3c5.7-25.4,27.6-40.8,49.9-40.8
		c114.4,0.2,228.9,0.1,343.3,0.1c1.6,0,3.3,0,4.9,0c1.3-0.1,2.6-0.2,3.6-1.2c0.1-0.6,0.2-1.3,0.2-1.9
		C511.6,407.6,511.6,258.5,511.6,109.5z M452.3,513.1H212.2V170.6H409v143c11-9,32.5-26.5,32.5-26.5l9.9,7.9
		c0,0,0.9,146.6,0.9,213.7C452.3,510.1,452.3,511.5,452.3,513.1z"/>
	<path class="st1" d="M502.4,569.1c-0.2,22.3-0.5,44.7-0.7,67c-0.1,5.9,0,11.9,0,18.3c3.6,0,6.8,0,10.8,0c-0.4,4.1-0.7,7.6-1,11.1
		c-2.2-2.4-0.4-5.8-1.8-8.4c-1.7-1.1-3.6-0.7-5.4-0.7c-46.3,0-92.6,0-138.9,0c-67.1,0-134.1,0-201.2,0c-11.9,0-22.8-3-32-10.9
		c-9.3-8-14.2-18.2-14.6-30.5c-0.2-6.6-0.1-13.2,2.5-19.6c6.7-16.8,21.7-27.3,39.8-27.7c0.9,0,1.7,0,2.6,0c111.1,0,222.2,0,333.3,0
		C498,567.7,500.5,567,502.4,569.1z"/>
	<path class="st2" d="M502.4,569.1c-114.6,0-229.2-0.2-343.7,0.1c-24.3,0.1-40.9,19.7-40.1,44.8c0.8,23.5,19.4,41,43.5,41
		c115.6-0.1,231.1,0,346.7,0c0.8,0,1.5,0.1,2.7,0.1c0,3.5,0,6.9,0,10.4c-119.1,0-238.3,0.3-357.4-0.3c-27.7-0.1-47.8-27.7-46.2-59.4
		c6.5-32.9,24.2-47.3,58-47.3c115.2,0,230.4,0.1,345.6,0.1c0,3.3,0,6.7,0,10.5C508.4,569.1,505.4,569.1,502.4,569.1z"/>
	<path class="st2" d="M409,106.3c0,18.3,0,36.3,0,54.8c-68.5,0-136.7,0-204.9,0c0,120.3,0,240.2,0,360c85.5,0,170.7,0,256.2,0
		c0-72.7,0-145.3,0-218.7c4.2,3.4,7.7,6.2,11.7,9.4c0-69,0-137.4,0-205.6C450.9,106.3,430.1,106.3,409,106.3z M452.3,513.1H212.2
		V170.6H409v143c11-9,32.2-26.2,32.2-26.2l10.2,8.2c0,0,0.9,146.1,0.9,213.2C452.3,510.1,452.3,511.5,452.3,513.1z"/>
	<path class="st2" d="M267.3,262.6c43.4,0,86.5,0,129.8,0c0-5.5,0-10.8,0-16.3c-43.5,0-86.6,0-129.8,0
		C267.3,251.8,267.3,257.2,267.3,262.6z"/>
	<path class="st2" d="M266.9,296c43.5,0,86.6,0,129.6,0c0-5.5,0-10.7,0-15.9c-43.4,0-86.4,0-129.6,0
		C266.9,285.5,266.9,290.7,266.9,296z"/>
	<path class="st3" d="M267,329.4c43.3,0,86.3,0,129.6,0c0-5.5,0-10.8,0-15.9c-43.4,0-86.5,0-129.6,0C267,319,267,324.1,267,329.4z"
		/>
</g>
</svg>
